<?xml version="1.0" encoding="UTF-8" standalone="no"?>
<svg
   height="24"
   viewBox="0 -960 960 960"
   width="24"
   fill="#e8eaed"
   version="1.1"
   id="svg1"
   sodipodi:docname="iconuser.svg"
   inkscape:version="1.3.2 (091e20ef0f, 2023-11-25, custom)"
   xmlns:inkscape="http://www.inkscape.org/namespaces/inkscape"
   xmlns:sodipodi="http://sodipodi.sourceforge.net/DTD/sodipodi-0.dtd"
   xmlns="http://www.w3.org/2000/svg"
   xmlns:svg="http://www.w3.org/2000/svg">
  <defs
     id="defs1" />
  <sodipodi:namedview
     id="namedview1"
     pagecolor="#ffffff"
     bordercolor="#000000"
     borderopacity="0.25"
     inkscape:showpageshadow="2"
     inkscape:pageopacity="0.0"
     inkscape:pagecheckerboard="0"
     inkscape:deskcolor="#d1d1d1"
     inkscape:zoom="16.479167"
     inkscape:cx="10.407079"
     inkscape:cy="13.319848"
     inkscape:window-width="1920"
     inkscape:window-height="1015"
     inkscape:window-x="0"
     inkscape:window-y="0"
     inkscape:window-maximized="1"
     inkscape:current-layer="svg1" />
  <path
     d="M 184.8,-235.2 Q 246,-282 321.6,-309 q 75.6,-27 158.4,-27 82.8,0 158.4,27 75.6,27 136.8,73.8 42,-49.2 65.4,-111.6 Q 864,-409.2 864,-480 864,-639.6 751.8,-751.8 639.6,-864 480,-864 320.4,-864 208.2,-751.8 96,-639.6 96,-480 q 0,70.8 23.4,133.2 23.4,62.4 65.4,111.6 z M 480,-432 q -70.8,0 -119.4,-48.6 Q 312,-529.2 312,-600 q 0,-70.8 48.6,-119.4 48.6,-48.6 119.4,-48.6 70.8,0 119.4,48.6 48.6,48.6 48.6,119.4 0,70.8 -48.6,119.4 Q 550.8,-432 480,-432 Z M 480,0 Q 380.4,0 292.8,-37.8 205.2,-75.6 140.4,-140.4 75.6,-205.2 37.8,-292.8 0,-380.4 0,-480 q 0,-99.6 37.8,-187.2 37.8,-87.6 102.6,-152.4 64.8,-64.8 152.4,-102.6 87.6,-37.8 187.2,-37.8 99.6,0 187.2,37.8 87.6,37.8 152.4,102.6 64.8,64.8 102.6,152.4 37.8,87.6 37.8,187.2 0,99.6 -37.8,187.2 -37.8,87.6 -102.6,152.4 Q 754.8,-75.6 667.2,-37.8 579.6,0 480,0 Z m 0,-96 q 63.6,0 120,-18.6 56.4,-18.6 103.2,-53.4 -46.8,-34.8 -103.2,-53.4 -56.4,-18.6 -120,-18.6 -63.6,0 -120,18.6 -56.4,18.6 -103.2,53.4 46.8,34.8 103.2,53.4 56.4,18.6 120,18.6 z m 0,-432 q 31.2,0 51.6,-20.4 20.4,-20.4 20.4,-51.6 0,-31.2 -20.4,-51.6 -20.4,-20.4 -51.6,-20.4 -31.2,0 -51.6,20.4 -20.4,20.4 -20.4,51.6 0,31.2 20.4,51.6 20.4,20.4 51.6,20.4 z m 0,-72 z m 0,432 z"
     id="path1"
     style="fill:#f9f9f9;fill-opacity:1;stroke-width:1.20001" />
</svg>
