<?xml version="1.0" encoding="UTF-8" standalone="no"?>
<svg
   height="24px"
   viewBox="0 -960 960 960"
   width="24px"
   fill="#e8eaed"
   version="1.1"
   id="svg1"
   sodipodi:docname="iconuser.svg"
   inkscape:version="1.3.2 (091e20ef0f, 2023-11-25, custom)"
   xmlns:inkscape="http://www.inkscape.org/namespaces/inkscape"
   xmlns:sodipodi="http://sodipodi.sourceforge.net/DTD/sodipodi-0.dtd"
   xmlns="http://www.w3.org/2000/svg"
   xmlns:svg="http://www.w3.org/2000/svg">
  <defs
     id="defs1" />
  <sodipodi:namedview
     id="namedview1"
     pagecolor="#ffffff"
     bordercolor="#000000"
     borderopacity="0.25"
     inkscape:showpageshadow="2"
     inkscape:pageopacity="0.0"
     inkscape:pagecheckerboard="0"
     inkscape:deskcolor="#d1d1d1"
     inkscape:zoom="16.479167"
     inkscape:cx="12.409608"
     inkscape:cy="15.322377"
     inkscape:window-width="1920"
     inkscape:window-height="1015"
     inkscape:window-x="0"
     inkscape:window-y="0"
     inkscape:window-maximized="1"
     inkscape:current-layer="svg1" />
  <path
     d="M234-276q51-39 114-61.5T480-360q69 0 132 22.5T726-276q35-41 54.5-93T800-480q0-133-93.5-226.5T480-800q-133 0-226.5 93.5T160-480q0 59 19.5 111t54.5 93Zm246-164q-59 0-99.5-40.5T340-580q0-59 40.5-99.5T480-720q59 0 99.5 40.5T620-580q0 59-40.5 99.5T480-440Zm0 360q-83 0-156-31.5T197-197q-54-54-85.5-127T80-480q0-83 31.5-156T197-763q54-54 127-85.5T480-880q83 0 156 31.5T763-763q54 54 85.5 127T880-480q0 83-31.5 156T763-197q-54 54-127 85.5T480-80Zm0-80q53 0 100-15.5t86-44.5q-39-29-86-44.5T480-280q-53 0-100 15.5T294-220q39 29 86 44.5T480-160Zm0-360q26 0 43-17t17-43q0-26-17-43t-43-17q-26 0-43 17t-17 43q0 26 17 43t43 17Zm0-60Zm0 360Z"
     id="path1"
     style="fill:#f9f9f9;fill-opacity:1" />
</svg>
