<?xml version="1.0" encoding="UTF-8" standalone="no"?>
<svg
   width="24"
   height="24"
   viewBox="0 0 24 24"
   version="1.1"
   id="svg1"
   sodipodi:docname="iconstore.svg"
   inkscape:version="1.3.2 (091e20ef0f, 2023-11-25, custom)"
   xmlns:inkscape="http://www.inkscape.org/namespaces/inkscape"
   xmlns:sodipodi="http://sodipodi.sourceforge.net/DTD/sodipodi-0.dtd"
   xmlns="http://www.w3.org/2000/svg"
   xmlns:svg="http://www.w3.org/2000/svg">
  <defs
     id="defs1" />
  <sodipodi:namedview
     id="namedview1"
     pagecolor="#ffffff"
     bordercolor="#000000"
     borderopacity="0.25"
     inkscape:showpageshadow="2"
     inkscape:pageopacity="0.0"
     inkscape:pagecheckerboard="0"
     inkscape:deskcolor="#d1d1d1"
     inkscape:zoom="16.479167"
     inkscape:cx="0.81921618"
     inkscape:cy="8.7079646"
     inkscape:window-width="1920"
     inkscape:window-height="1015"
     inkscape:window-x="0"
     inkscape:window-y="0"
     inkscape:window-maximized="1"
     inkscape:current-layer="svg1" />
  <path
     d="M9.939 0l-.939 4.971v1.098c0 1.066-.933 1.931-2 1.931s-2-.865-2-1.932v-1.097l2.996-4.971h1.943zm-3.052 0l-2.887 4.971v1.098c0 1.066-.933 1.931-2 1.931s-2-.865-2-1.932v-1.097l4.874-4.971h2.013zm17.113 6.068c0 1.067-.933 1.932-2 1.932s-2-.933-2-2v-1.098l-2.887-4.902h2.014l4.873 4.971v1.097zm-10-1.168v1.098c0 1.066-.933 2.002-2 2.002s-2-.933-2-2v-1.098l1.047-4.902h1.905l1.048 4.9zm2.004-4.9l2.993 5.002v1.098c.001 1.067-.93 1.9-1.997 1.9s-2-.933-2-2v-1.098l-.939-4.902h1.943zm-15.004 10v14h10v-2h-8v-10h18v12h2v-14h-22zm18 4h-6v10h6v-10z"
     id="path1"
     style="fill:#0d1326;fill-opacity:1" />
</svg>
