<?xml version="1.0" encoding="UTF-8" standalone="no"?>
<svg
   width="24"
   height="24"
   fill-rule="evenodd"
   clip-rule="evenodd"
   version="1.1"
   id="svg1"
   sodipodi:docname="iconshop.svg"
   inkscape:version="1.3.2 (091e20ef0f, 2023-11-25, custom)"
   xmlns:inkscape="http://www.inkscape.org/namespaces/inkscape"
   xmlns:sodipodi="http://sodipodi.sourceforge.net/DTD/sodipodi-0.dtd"
   xmlns="http://www.w3.org/2000/svg"
   xmlns:svg="http://www.w3.org/2000/svg">
  <defs
     id="defs1" />
  <sodipodi:namedview
     id="namedview1"
     pagecolor="#ffffff"
     bordercolor="#000000"
     borderopacity="0.25"
     inkscape:showpageshadow="2"
     inkscape:pageopacity="0.0"
     inkscape:pagecheckerboard="0"
     inkscape:deskcolor="#d1d1d1"
     inkscape:zoom="16.479167"
     inkscape:cx="-2.7003793"
     inkscape:cy="14.533502"
     inkscape:window-width="1920"
     inkscape:window-height="1015"
     inkscape:window-x="0"
     inkscape:window-y="0"
     inkscape:window-maximized="1"
     inkscape:current-layer="svg1" />
  <path
     d="M10.726 3.198c.169.339.792.901 1.282 1.166.509-.272 1.113-.837 1.279-1.166-.16-.071-.524-.182-1.282-.214-.757.03-1.121.143-1.279.214m1.28-1.215l.028.001c4.435.171 1.302 3.053-.012 3.456l-.016.004c-1.308-.385-4.493-3.3 0-3.461m-.009 9.915c-.332 0-.6.269-.6.6 0 .331.268.6.6.6.331 0 .6-.269.6-.6 0-.331-.269-.6-.6-.6m0 2.992c-.332 0-.6.269-.6.6 0 .331.268.601.6.601.331 0 .6-.27.6-.601 0-.331-.269-.6-.6-.6m0-5.999c-.332 0-.6.269-.6.6 0 .331.268.6.6.6.331 0 .6-.269.6-.6 0-.331-.269-.6-.6-.6m8.762 12.628l2.065-.502-3.269-15.691-3.258-1.724c.073 1.944-.826 3.794-1.658 5.627 0 0-2.166-1.883-2.633-2.257-.511.412-2.634 2.256-2.634 2.256-.859-1.901-1.731-3.74-1.656-5.637l-3.278 1.735-3.265 15.724 2.065.531 2.769-9.724.992.143v11h10v-11l.983-.144 2.777 9.663zm-11.036-13.941c.746-.666 2.283-1.882 2.283-1.882s1.457 1.146 2.283 1.882c1.972-4.351.999-6.571-2.245-6.578h-.061c-3.254 0-4.235 2.22-2.26 6.578m14.276 14.17l-3.934.971-2.073-7.208-.022 8.489h-11.982v-8.424l-2.054 7.216-3.934-1.012 3.555-17.118 4.4-2.329c.863-2.392 3.583-2.333 4.091-2.333.794.002 3.212.099 4.016 2.345l4.377 2.317 3.56 17.086zm-12.002-3.829c-.332 0-.6.268-.6.599 0 .331.268.6.6.6.331 0 .6-.269.6-.6 0-.331-.269-.599-.6-.599m.6 3.579c0 .331-.269.599-.6.599-.332 0-.6-.268-.6-.599 0-.331.268-.6.6-.6.331 0 .6.269.6.6"
     id="path1"
     style="fill:#f9f9f9;fill-opacity:1" />
</svg>
