<?xml version="1.0" encoding="UTF-8" standalone="no"?>
<svg
   width="24"
   height="24"
   viewBox="0 0 24 24"
   version="1.1"
   id="svg1"
   sodipodi:docname="icon-cart.svg"
   inkscape:version="1.3.2 (091e20ef0f, 2023-11-25, custom)"
   xmlns:inkscape="http://www.inkscape.org/namespaces/inkscape"
   xmlns:sodipodi="http://sodipodi.sourceforge.net/DTD/sodipodi-0.dtd"
   xmlns="http://www.w3.org/2000/svg"
   xmlns:svg="http://www.w3.org/2000/svg">
  <defs
     id="defs1" />
  <sodipodi:namedview
     id="namedview1"
     pagecolor="#ffffff"
     bordercolor="#000000"
     borderopacity="0.25"
     inkscape:showpageshadow="2"
     inkscape:pageopacity="0.0"
     inkscape:pagecheckerboard="0"
     inkscape:deskcolor="#d1d1d1"
     inkscape:zoom="23.305061"
     inkscape:cx="6.6723704"
     inkscape:cy="9.2898276"
     inkscape:window-width="1920"
     inkscape:window-height="1015"
     inkscape:window-x="0"
     inkscape:window-y="0"
     inkscape:window-maximized="1"
     inkscape:current-layer="svg1" />
  <path
     d="M 24,0 23.257,2.6666666 H 21.328 L 17.854,18.666668 H 4.615 L 0,4.0000002 H 16.812 L 16.248,6.6666668 H 3.008 L 5.945,16.000002 H 16.373 L 19.805,0 Z M 8.5,19.999998 c -0.828,0 -1.5,0.896004 -1.5,2.000004 C 7,23.105332 7.672,24 8.5,24 9.328,24 10,23.105332 10,22.000002 c 0,-1.104 -0.672,-2.000004 -1.5,-2.000004 z m 6.9,-9.333334 -1.9,9.333334 c -0.828,0 -1.5,0.894668 -1.5,2.000004 C 12,23.105332 12.672,24 13.5,24 c 0.828,0 1.5,-0.894668 1.5,-1.999998 0,-1.104 -0.672,-2.000004 -1.5,-2.000004 z"
     id="path1"
     style="fill:#f9f9f9;fill-opacity:1;stroke-width:1.1547" />
</svg>
